<svg xmlns="http://www.w3.org/2000/svg" width="1200" height="840" viewBox="0 0 1200 840">
  <defs>
    <linearGradient id="lg1" x1="0" y1="0" x2="1" y2="1">
      <stop offset="0" stop-color="#0ea5a4"/><stop offset="1" stop-color="#3b82f6"/>
    </linearGradient>
    <linearGradient id="lg2" x1="0" y1="0" x2="1" y2="0">
      <stop offset="0" stop-color="#0ea5a4"/><stop offset="1" stop-color="#8b5cf6"/>
    </linearGradient>
  </defs>
  <rect width="1200" height="840" rx="16" fill="#f4f6fb"/>

  <rect x="0" y="0" width="1200" height="64" fill="#ffffff" stroke="#e5e7eb"/>
  <rect x="20" y="12" width="40" height="40" rx="11" fill="url(#lg1)"/>
  <text x="40" y="38" font-size="22" text-anchor="middle" fill="#fff">⚡</text>
  <text x="72" y="30" font-size="17" font-weight="700" fill="#1f2937">codexU-web</text>
  <text x="72" y="48" font-size="11" fill="#6b7280">Codex / Claude 用量可视化 · 纯本地</text>
  <text x="940" y="30" font-size="11" fill="#6b7280">更新于 14:00:00</text>
  <rect x="980" y="14" width="64" height="32" rx="8" fill="#f1f5f9" stroke="#e5e7eb"/>
  <text x="1012" y="35" font-size="12" text-anchor="middle" fill="#1f2937">↻ 刷新</text>
  <rect x="1052" y="14" width="64" height="32" rx="8" fill="#f1f5f9" stroke="#e5e7eb"/>
  <text x="1084" y="35" font-size="12" text-anchor="middle" fill="#1f2937">Aurora</text>
  <rect x="1124" y="14" width="56" height="32" rx="8" fill="#f1f5f9" stroke="#e5e7eb"/>
  <text x="1152" y="35" font-size="12" text-anchor="middle" fill="#1f2937">中/EN</text>

  <rect x="0" y="64" width="1200" height="40" fill="#fee2e2" stroke="#fca5a5"/>
  <text x="24" y="89" font-size="13" fill="#991b1b">⚠ <tspan font-weight="700">7 天额度</tspan> 已用 <tspan font-weight="700">93%</tspan>，额度即将耗尽（重置 08-06 09:00）</text>

  <text x="20" y="128" font-size="14" font-weight="600" fill="#1f2937">今日概览</text>
  <text x="200" y="128" font-size="11" fill="#6b7280">2026-08-03</text>

  <rect x="20" y="138" width="280" height="86" rx="12" fill="#ffffff" stroke="#e5e7eb"/>
  <text x="36" y="162" font-size="12" fill="#6b7280">今日 Token</text>
  <text x="36" y="192" font-size="24" font-weight="800" fill="#1f2937">27.08M</text>
  <text x="36" y="214" font-size="12" fill="#dc2626">▲ 较昨日 +12%</text>

  <rect x="312" y="138" width="280" height="86" rx="12" fill="#ffffff" stroke="#e5e7eb"/>
  <text x="328" y="162" font-size="12" fill="#6b7280">今日花费（等效价值）</text>
  <text x="328" y="192" font-size="24" font-weight="800" fill="#1f2937">¥304</text>
  <text x="328" y="214" font-size="12" fill="#dc2626">▲ 较昨日 +9%</text>

  <rect x="604" y="138" width="280" height="86" rx="12" fill="#ffffff" stroke="#e5e7eb"/>
  <text x="620" y="162" font-size="12" fill="#6b7280">今日任务</text>
  <text x="620" y="192" font-size="24" font-weight="800" fill="#1f2937">2 项</text>
  <text x="620" y="214" font-size="12" fill="#6b7280">每任务均值 13.5M</text>

  <rect x="896" y="138" width="284" height="86" rx="12" fill="#ffffff" stroke="#e5e7eb"/>
  <text x="912" y="162" font-size="12" fill="#6b7280">活跃项目</text>
  <text x="912" y="192" font-size="24" font-weight="800" fill="#1f2937">1 个</text>
  <text x="912" y="214" font-size="12" fill="#6b7280">codexU-web</text>

  <rect x="20" y="240" width="420" height="236" rx="14" fill="#ffffff" stroke="#e5e7eb"/>
  <text x="36" y="266" font-size="14" font-weight="600" fill="#1f2937">额度窗口</text>
  <rect x="350" y="250" width="76" height="20" rx="10" fill="#f1f5f9" stroke="#e5e7eb"/>
  <text x="388" y="264" font-size="10" text-anchor="middle" fill="#6b7280">本机日志峰值</text>

  <circle cx="120" cy="352" r="52" fill="none" stroke="#eef2f7" stroke-width="10"/>
  <circle cx="120" cy="352" r="52" fill="none" stroke="#f59e0b" stroke-width="10" stroke-dasharray="95 327" transform="rotate(-90 120 352)"/>
  <text x="120" y="347" font-size="20" font-weight="800" text-anchor="middle" fill="#1f2937">29%</text>
  <text x="120" y="367" font-size="11" text-anchor="middle" fill="#6b7280">5 小时额度</text>

  <circle cx="120" cy="470" r="52" fill="none" stroke="#eef2f7" stroke-width="10"/>
  <circle cx="120" cy="470" r="52" fill="none" stroke="#dc2626" stroke-width="10" stroke-dasharray="305 327" transform="rotate(-90 120 470)"/>
  <text x="120" y="465" font-size="20" font-weight="800" text-anchor="middle" fill="#1f2937">93%</text>
  <text x="120" y="485" font-size="11" text-anchor="middle" fill="#6b7280">7 天额度</text>

  <text x="230" y="276" font-size="12" fill="#6b7280">Token 总览</text>
  <rect x="230" y="288" width="96" height="56" rx="8" fill="#f1f5f9" stroke="#e5e7eb"/>
  <text x="242" y="308" font-size="11" fill="#6b7280">累计</text>
  <text x="242" y="332" font-size="16" font-weight="700" fill="#1f2937">10.8B</text>
  <rect x="334" y="288" width="96" height="56" rx="8" fill="#f1f5f9" stroke="#e5e7eb"/>
  <text x="346" y="308" font-size="11" fill="#6b7280">输入</text>
  <text x="346" y="332" font-size="16" font-weight="700" fill="#1f2937">6.2B</text>
  <rect x="230" y="352" width="96" height="56" rx="8" fill="#f1f5f9" stroke="#e5e7eb"/>
  <text x="242" y="372" font-size="11" fill="#6b7280">缓存命中</text>
  <text x="242" y="396" font-size="16" font-weight="700" fill="#1f2937">2.1B</text>
  <rect x="334" y="352" width="96" height="56" rx="8" fill="#f1f5f9" stroke="#e5e7eb"/>
  <text x="346" y="372" font-size="11" fill="#6b7280">输出</text>
  <text x="346" y="396" font-size="16" font-weight="700" fill="#1f2937">2.5B</text>
  <rect x="230" y="420" width="200" height="46" rx="10" fill="url(#lg2)"/>
  <text x="242" y="437" font-size="11" fill="rgba(255,255,255,.92)">羊毛进度（API 等效价值）</text>
  <text x="242" y="456" font-size="16" font-weight="800" fill="#fff">$46,205 <tspan font-size="11" opacity=".9">≈ ¥332K</tspan></text>

  <rect x="456" y="240" width="332" height="236" rx="14" fill="#ffffff" stroke="#e5e7eb"/>
  <text x="472" y="266" font-size="14" font-weight="600" fill="#1f2937">AI 领导力</text>
  <path d="M520 400 A 90 60 0 0 1 724 400" fill="none" stroke="#eef2f7" stroke-width="14" stroke-linecap="round"/>
  <path d="M520 400 A 90 60 0 0 1 663 351" fill="none" stroke="url(#lg1)" stroke-width="14" stroke-linecap="round"/>
  <text x="622" y="408" font-size="28" font-weight="800" text-anchor="middle" fill="#0ea5a4">63</text>
  <text x="622" y="428" font-size="11" text-anchor="middle" fill="#6b7280">首席调度</text>
  <text x="472" y="446" font-size="11" fill="#6b7280">一致性 82</text>
  <rect x="530" y="437" width="90" height="7" rx="4" fill="#eef2f7"/>
  <rect x="530" y="437" width="74" height="7" rx="4" fill="#0ea5a4"/>
  <text x="472" y="466" font-size="11" fill="#6b7280">规模 66</text>
  <rect x="530" y="457" width="90" height="7" rx="4" fill="#eef2f7"/>
  <rect x="530" y="457" width="59" height="7" rx="4" fill="#3b82f6"/>
  <text x="680" y="446" font-size="11" fill="#6b7280">并发 55</text>
  <rect x="722" y="437" width="54" height="7" rx="4" fill="#eef2f7"/>
  <rect x="722" y="437" width="30" height="7" rx="4" fill="#8b5cf6"/>
  <text x="680" y="466" font-size="11" fill="#6b7280">广度 48</text>
  <rect x="722" y="457" width="54" height="7" rx="4" fill="#eef2f7"/>
  <rect x="722" y="457" width="26" height="7" rx="4" fill="#f59e0b"/>

  <rect x="804" y="240" width="376" height="236" rx="14" fill="#ffffff" stroke="#e5e7eb"/>
  <text x="820" y="266" font-size="14" font-weight="600" fill="#1f2937">今日任务</text>
  <rect x="820" y="278" width="344" height="54" rx="9" fill="#f1f5f9" stroke="#e5e7eb"/>
  <circle cx="838" cy="305" r="5" fill="#0ea5a4"/>
  <text x="852" y="300" font-size="13" font-weight="600" fill="#1f2937">微信支付 AI 专属卡余额查询</text>
  <text x="852" y="318" font-size="11" fill="#6b7280">gpt-5.2-codex · codexU-web</text>
  <text x="1150" y="305" font-size="12" fill="#6b7280">18.4M</text>
  <rect x="820" y="340" width="344" height="54" rx="9" fill="#f1f5f9" stroke="#e5e7eb"/>
  <circle cx="838" cy="367" r="5" fill="#8b5cf6"/>
  <text x="852" y="362" font-size="13" font-weight="600" fill="#1f2937">修复 SQLite 解析性能问题</text>
  <text x="852" y="380" font-size="11" fill="#6b7280">claude-opus-4-1 · codexU-web</text>
  <text x="1150" y="367" font-size="12" fill="#6b7280">8.7M</text>
  <rect x="820" y="402" width="344" height="54" rx="9" fill="#f1f5f9" stroke="#e5e7eb"/>
  <circle cx="838" cy="429" r="5" fill="#0ea5a4"/>
  <text x="852" y="424" font-size="13" font-weight="600" fill="#1f2937">重构前端渲染逻辑</text>
  <text x="852" y="442" font-size="11" fill="#6b7280">gpt-5.2-codex · codexU-web</text>
  <text x="1150" y="429" font-size="12" fill="#6b7280">0.0M</text>

  <rect x="20" y="492" width="1160" height="152" rx="14" fill="#ffffff" stroke="#e5e7eb"/>
  <text x="36" y="518" font-size="14" font-weight="600" fill="#1f2937">Token 趋势（近 180 天）</text>
  <text x="36" y="540" font-size="11" fill="#6b7280">■ gpt-5.2-codex</text>
  <text x="170" y="540" font-size="11" fill="#6b7280">■ claude-opus-4-1</text>
  <text x="300" y="540" font-size="11" fill="#6b7280">■ o4-mini</text>
  <text x="420" y="540" font-size="11" fill="#6b7280">■ other</text>
  <path d="M40 600 L1160 600" stroke="#e5e7eb" stroke-width="1"/>
  <path d="M40 545 C120 585 200 540 280 565 C360 590 440 555 520 575 C600 595 680 560 760 580 C840 600 920 565 1000 585 C1040 595 1100 570 1160 580 L1160 600 L40 600 Z" fill="rgba(14,165,164,.28)"/>
  <path d="M40 575 C120 600 200 570 280 585 C360 600 440 585 520 595 C600 605 680 590 760 600 C840 610 920 595 1000 605 C1040 608 1100 595 1160 600" fill="none" stroke="#0ea5a4" stroke-width="2"/>
  <path d="M40 588 C120 605 200 590 280 598 C360 606 440 596 520 602 C600 608 680 598 760 604 C840 610 920 600 1000 606 C1040 608 1100 600 1160 605 L1160 600 L40 600 Z" fill="rgba(139,92,246,.25)"/>
  <path d="M40 592 C120 606 200 596 280 602 C360 608 440 600 520 605 C600 610 680 602 760 607 C840 612 920 604 1000 609 C1040 610 1100 604 1160 608" fill="none" stroke="#8b5cf6" stroke-width="2"/>
  <text x="40" y="632" font-size="10" fill="#9ca3af">2月</text>
  <text x="260" y="632" font-size="10" fill="#9ca3af">3月</text>
  <text x="480" y="632" font-size="10" fill="#9ca3af">4月</text>
  <text x="700" y="632" font-size="10" fill="#9ca3af">5月</text>
  <text x="920" y="632" font-size="10" fill="#9ca3af">6月</text>
  <text x="1120" y="632" font-size="10" fill="#9ca3af">7月</text>

  <rect x="20" y="660" width="560" height="164" rx="14" fill="#ffffff" stroke="#e5e7eb"/>
  <text x="36" y="686" font-size="14" font-weight="600" fill="#1f2937">每日活跃热力图</text>
  <g>
    <rect x="40" y="704" width="22" height="22" rx="4" fill="#eef2f7"/>
    <rect x="66" y="704" width="22" height="22" rx="4" fill="#eef2f7"/>
    <rect x="92" y="704" width="22" height="22" rx="4" fill="#a5d8d7"/>
    <rect x="118" y="704" width="22" height="22" rx="4" fill="#eef2f7"/>
    <rect x="144" y="704" width="22" height="22" rx="4" fill="#cdebea"/>
    <rect x="170" y="704" width="22" height="22" rx="4" fill="#eef2f7"/>
    <rect x="196" y="704" width="22" height="22" rx="4" fill="#0ea5a4"/>
    <rect x="222" y="704" width="22" height="22" rx="4" fill="#eef2f7"/>
    <rect x="248" y="704" width="22" height="22" rx="4" fill="#eef2f7"/>
    <rect x="274" y="704" width="22" height="22" rx="4" fill="#cdebea"/>
    <rect x="300" y="704" width="22" height="22" rx="4" fill="#eef2f7"/>
    <rect x="326" y="704" width="22" height="22" rx="4" fill="#eef2f7"/>
    <rect x="352" y="704" width="22" height="22" rx="4" fill="#5dc2c1"/>
    <rect x="378" y="704" width="22" height="22" rx="4" fill="#eef2f7"/>
    <rect x="404" y="704" width="22" height="22" rx="4" fill="#eef2f7"/>
    <rect x="430" y="704" width="22" height="22" rx="4" fill="#cdebea"/>
    <rect x="456" y="704" width="22" height="22" rx="4" fill="#0ea5a4"/>
    <rect x="482" y="704" width="22" height="22" rx="4" fill="#eef2f7"/>
    <rect x="508" y="704" width="22" height="22" rx="4" fill="#eef2f7"/>
    <rect x="534" y="704" width="22" height="22" rx="4" fill="#cdebea"/>

    <rect x="40" y="730" width="22" height="22" rx="4" fill="#eef2f7"/>
    <rect x="66" y="730" width="22" height="22" rx="4" fill="#a5d8d7"/>
    <rect x="92" y="730" width="22" height="22" rx="4" fill="#eef2f7"/>
    <rect x="118" y="730" width="22" height="22" rx="4" fill="#cdebea"/>
    <rect x="144" y="730" width="22" height="22" rx="4" fill="#eef2f7"/>
    <rect x="170" y="730" width="22" height="22" rx="4" fill="#0ea5a4"/>
    <rect x="196" y="730" width="22" height="22" rx="4" fill="#eef2f7"/>
    <rect x="222" y="730" width="22" height="22" rx="4" fill="#eef2f7"/>
    <rect x="248" y="730" width="22" height="22" rx="4" fill="#cdebea"/>
    <rect x="274" y="730" width="22" height="22" rx="4" fill="#eef2f7"/>
    <rect x="300" y="730" width="22" height="22" rx="4" fill="#a5d8d7"/>
    <rect x="326" y="730" width="22" height="22" rx="4" fill="#eef2f7"/>
    <rect x="352" y="730" width="22" height="22" rx="4" fill="#eef2f7"/>
    <rect x="378" y="730" width="22" height="22" rx="4" fill="#cdebea"/>
    <rect x="404" y="730" width="22" height="22" rx="4" fill="#0ea5a4"/>
    <rect x="430" y="730" width="22" height="22" rx="4" fill="#eef2f7"/>
    <rect x="456" y="730" width="22" height="22" rx="4" fill="#eef2f7"/>
    <rect x="482" y="730" width="22" height="22" rx="4" fill="#cdebea"/>
    <rect x="508" y="730" width="22" height="22" rx="4" fill="#eef2f7"/>
    <rect x="534" y="730" width="22" height="22" rx="4" fill="#a5d8d7"/>

    <rect x="40" y="756" width="22" height="22" rx="4" fill="#cdebea"/>
    <rect x="66" y="756" width="22" height="22" rx="4" fill="#eef2f7"/>
    <rect x="92" y="756" width="22" height="22" rx="4" fill="#0ea5a4"/>
    <rect x="118" y="756" width="22" height="22" rx="4" fill="#eef2f7"/>
    <rect x="144" y="756" width="22" height="22" rx="4" fill="#eef2f7"/>
    <rect x="170" y="756" width="22" height="22" rx="4" fill="#cdebea"/>
    <rect x="196" y="756" width="22" height="22" rx="4" fill="#eef2f7"/>
    <rect x="222" y="756" width="22" height="22" rx="4" fill="#a5d8d7"/>
    <rect x="248" y="756" width="22" height="22" rx="4" fill="#eef2f7"/>
    <rect x="274" y="756" width="22" height="22" rx="4" fill="#eef2f7"/>
    <rect x="300" y="756" width="22" height="22" rx="4" fill="#cdebea"/>
    <rect x="326" y="756" width="22" height="22" rx="4" fill="#eef2f7"/>
    <rect x="352" y="756" width="22" height="22" rx="4" fill="#0ea5a4"/>
    <rect x="378" y="756" width="22" height="22" rx="4" fill="#eef2f7"/>
    <rect x="404" y="756" width="22" height="22" rx="4" fill="#cdebea"/>
    <rect x="430" y="756" width="22" height="22" rx="4" fill="#eef2f7"/>
    <rect x="456" y="756" width="22" height="22" rx="4" fill="#eef2f7"/>
    <rect x="482" y="756" width="22" height="22" rx="4" fill="#cdebea"/>
    <rect x="508" y="756" width="22" height="22" rx="4" fill="#eef2f7"/>
    <rect x="534" y="756" width="22" height="22" rx="4" fill="#0ea5a4"/>
  </g>
  <text x="40" y="804" font-size="10" fill="#9ca3af">周一</text>
  <text x="40" y="806" font-size="10" fill="#9ca3af">2月</text>
  <text x="40" y="796" font-size="10" fill="#9ca3af">少</text>
  <text x="530" y="796" font-size="10" fill="#9ca3af">多</text>
  <rect x="496" y="788" width="14" height="14" rx="3" fill="#eef2f7"/>
  <rect x="514" y="788" width="14" height="14" rx="3" fill="#cdebea"/>
  <rect x="532" y="788" width="14" height="14" rx="3" fill="#5dc2c1"/>
  <rect x="550" y="788" width="14" height="14" rx="3" fill="#0ea5a4"/>

  <rect x="596" y="660" width="284" height="164" rx="14" fill="#ffffff" stroke="#e5e7eb"/>
  <text x="612" y="686" font-size="14" font-weight="600" fill="#1f2937">模型排行</text>
  <text x="612" y="714" font-size="12" fill="#1f2937">gpt-5.2-codex</text>
  <rect x="700" y="708" width="120" height="7" rx="4" fill="#eef2f7"/>
  <rect x="700" y="708" width="120" height="7" rx="4" fill="#0ea5a4"/>
  <text x="856" y="714" font-size="12" fill="#6b7280">7.2B · $32K</text>
  <text x="612" y="742" font-size="12" fill="#1f2937">claude-opus-4-1</text>
  <rect x="700" y="736" width="120" height="7" rx="4" fill="#eef2f7"/>
  <rect x="700" y="736" width="88" height="7" rx="4" fill="#8b5cf6"/>
  <text x="856" y="742" font-size="12" fill="#6b7280">2.3B · $9K</text>
  <text x="612" y="770" font-size="12" fill="#1f2937">o4-mini</text>
  <rect x="700" y="764" width="120" height="7" rx="4" fill="#eef2f7"/>
  <rect x="700" y="764" width="52" height="7" rx="4" fill="#f59e0b"/>
  <text x="856" y="770" font-size="12" fill="#6b7280">0.9B · $4K</text>
  <text x="612" y="798" font-size="12" fill="#1f2937">other</text>
  <rect x="700" y="792" width="120" height="7" rx="4" fill="#eef2f7"/>
  <rect x="700" y="792" width="30" height="7" rx="4" fill="#3b82f6"/>
  <text x="856" y="798" font-size="12" fill="#6b7280">0.4B · $1K</text>

  <rect x="896" y="660" width="284" height="164" rx="14" fill="#ffffff" stroke="#e5e7eb"/>
  <text x="912" y="686" font-size="14" font-weight="600" fill="#1f2937">项目排行</text>
  <text x="912" y="714" font-size="12" fill="#1f2937">codexU-web</text>
  <rect x="1000" y="708" width="120" height="7" rx="4" fill="#eef2f7"/>
  <rect x="1000" y="708" width="120" height="7" rx="4" fill="#0ea5a4"/>
  <text x="1156" y="714" font-size="12" fill="#6b7280">10.8B · 65 会话</text>
  <text x="912" y="742" font-size="12" fill="#1f2937">other-projects</text>
  <rect x="1000" y="736" width="120" height="7" rx="4" fill="#eef2f7"/>
  <rect x="1000" y="736" width="30" height="7" rx="4" fill="#8b5cf6"/>
  <text x="1156" y="742" font-size="12" fill="#6b7280">0.3B · 12 会话</text>
  <text x="912" y="790" font-size="11" fill="#6b7280">所有数据均在本机解析，无任何上传。</text>
  <text x="912" y="808" font-size="11" fill="#6b7280">65 Codex 会话 · 9 Claude 文件</text>
</svg>
